# xmcd
#
# Track frame offsets: 
#        150
#        15652
#        30304
#        46115
#        59472
#        76258
#        90908
#        103106
#        115481
#        130316
#        141694
#
# Disc length: 2118 seconds
#
# Revision: 0
# Processed by: cddbd v1.5.2PL0 Copyright (c) Steve Scherf et al.
# Submitted via: ExactAudioCopy v0.95b4
#
DISCID=8c08440b
DTITLE=Don williams - My heart to you
DYEAR=2004
DGENRE=Country
TTITLE0=wonderful tonight
TTITLE1=when i'am with you
TTITLE2=the rose
TTITLE3=i'll be faithful to you
TTITLE4=oh misery
TTITLE5=my heart to you
TTITLE6=one like me
TTITLE7=years from now
TTITLE8=get away
TTITLE9=fly away
TTITLE10=running in the fast lane
EXTD=
EXTT0=
EXTT1=
EXTT2=
EXTT3=
EXTT4=
EXTT5=
EXTT6=
EXTT7=
EXTT8=
EXTT9=
EXTT10=
PLAYORDER=
